<?xml version="1.0" encoding="UTF-8" standalone="no"?>
<!-- Created with Inkscape (http://www.inkscape.org/) -->

<svg
   width="254mm"
   height="143.13959mm"
   viewBox="0 0 254 143.13959"
   version="1.1"
   id="svg1"
   xml:space="preserve"
   inkscape:version="1.3.2 (091e20e, 2023-11-25)"
   xmlns:inkscape="http://www.inkscape.org/namespaces/inkscape"
   xmlns:sodipodi="http://sodipodi.sourceforge.net/DTD/sodipodi-0.dtd"
   xmlns="http://www.w3.org/2000/svg"
   xmlns:svg="http://www.w3.org/2000/svg"><sodipodi:namedview
     id="namedview1"
     pagecolor="#ffffff"
     bordercolor="#666666"
     borderopacity="1.0"
     inkscape:showpageshadow="2"
     inkscape:pageopacity="0.0"
     inkscape:pagecheckerboard="0"
     inkscape:deskcolor="#d1d1d1"
     inkscape:document-units="mm"
     inkscape:zoom="0.81314793"
     inkscape:cx="469.77922"
     inkscape:cy="295.14925"
     inkscape:window-width="1440"
     inkscape:window-height="773"
     inkscape:window-x="0"
     inkscape:window-y="25"
     inkscape:window-maximized="1"
     inkscape:current-layer="layer1" /><defs
     id="defs1" /><g
     inkscape:label="Layer 1"
     inkscape:groupmode="layer"
     id="layer1"
     transform="translate(22.546609,-76.930209)"><g
       id="g1"
       transform="matrix(0.26458333,0,0,0.26458333,-22.546609,76.930209)"><path
         d="m 0,104 87,54 88,-33 87,6 87,32 h 87 l 88,5 87,6 87,-38 87,-32 88,21 87,22 V 0 H 873 785 698 611 524 436 349 262 175 87 0 Z"
         fill="#003223"
         id="path1"
         style="display:inline;fill:#001a33;fill-opacity:1" /><path
         d="m 0,185 87,10 88,17 87,5 87,-11 87,33 88,-6 87,-11 87,-37 87,-38 88,43 h 87 v -45 l -87,-22 -88,-21 -87,32 -87,38 -87,-6 -88,-5 H 349 L 262,129 175,123 87,156 0,102 Z"
         fill="#013b2d"
         id="path2"
         style="display:inline;fill:#011a3b;fill-opacity:1" /><path
         d="m 0,228 87,21 88,38 87,22 87,-6 87,33 88,-38 87,-16 87,-22 87,-5 88,32 87,-32 v -67 h -87 l -88,-43 -87,38 -87,37 -87,11 -88,6 -87,-33 -87,11 -87,-5 L 87,193 0,183 Z"
         fill="#014537"
         id="path3"
         style="fill:#011d46;fill-opacity:1" /><path
         d="m 0,357 87,38 88,-48 87,21 87,60 87,21 88,-86 87,27 87,-38 87,27 88,-11 87,33 V 253 l -87,32 -88,-32 -87,5 -87,22 -87,16 -88,38 -87,-33 -87,6 L 175,285 87,247 0,226 Z"
         fill="#024f42"
         id="path4"
         style="fill:#022050;fill-opacity:1" /><path
         d="m 0,541 h 87 88 87 87 87 88 87 87 87 88 87 V 399 l -87,-33 -88,11 -87,-27 -87,38 -87,-27 -88,86 -87,-21 -87,-60 -87,-21 -88,48 -87,-38 z"
         fill="#02594e"
         id="path5"
         style="fill:#021f59;fill-opacity:1" /></g></g></svg>
