<?xml version="1.0" encoding="UTF-8" standalone="no"?>
<!-- Created with Inkscape (http://www.inkscape.org/) -->

<svg
   width="14.930886mm"
   height="15.999926mm"
   viewBox="0 0 14.930886 15.999926"
   version="1.1"
   id="svg5"
   inkscape:version="1.1.2 (b8e25be8, 2022-02-05)"
   xmlns:inkscape="http://www.inkscape.org/namespaces/inkscape"
   xmlns:sodipodi="http://sodipodi.sourceforge.net/DTD/sodipodi-0.dtd"
   xmlns="http://www.w3.org/2000/svg"
   xmlns:svg="http://www.w3.org/2000/svg">
  <sodipodi:namedview
     id="namedview7"
     pagecolor="#ffffff"
     bordercolor="#666666"
     borderopacity="1.0"
     inkscape:pageshadow="2"
     inkscape:pageopacity="0.0"
     inkscape:pagecheckerboard="0"
     inkscape:document-units="mm"
     showgrid="false"
     fit-margin-top="0"
     fit-margin-left="0"
     fit-margin-right="0"
     fit-margin-bottom="0"
     inkscape:zoom="2.5620932"
     inkscape:cx="-34.54207"
     inkscape:cy="58.936187"
     inkscape:window-width="1920"
     inkscape:window-height="954"
     inkscape:window-x="0"
     inkscape:window-y="25"
     inkscape:window-maximized="0"
     inkscape:current-layer="g950" />
  <defs
     id="defs2">
    <clipPath
       clipPathUnits="userSpaceOnUse"
       id="clipPath954">
      <path
         d="M 0,80.053 H 252.283 V 0 H 0 Z"
         id="path952" />
    </clipPath>
    <clipPath
       clipPathUnits="userSpaceOnUse"
       id="clipPath982">
      <path
         d="m 190.115,62.7037 h 42.324 V 17.3494 h -42.324 z"
         id="path980" />
    </clipPath>
    <clipPath
       clipPathUnits="userSpaceOnUse"
       id="clipPath986">
      <path
         d="m 194.321,60.0787 h 31.655 V 17.3494 h -31.655 z"
         id="path984" />
    </clipPath>
    <clipPath
       clipPathUnits="userSpaceOnUse"
       id="clipPath990">
      <path
         d="M 190.745,61.4867 H 229.65 V 30.2521 h -38.905 z"
         id="path988" />
    </clipPath>
    <clipPath
       clipPathUnits="userSpaceOnUse"
       id="clipPath994">
      <path
         d="m 190.115,62.7037 h 42.324 V 19.0901 h -42.324 z"
         id="path992" />
    </clipPath>
    <clipPath
       clipPathUnits="userSpaceOnUse"
       id="clipPath998">
      <path
         d="m 190.115,62.7037 h 42.324 V 19.0901 h -42.324 z"
         id="path996" />
    </clipPath>
  </defs>
  <g
     inkscape:label="Layer 1"
     inkscape:groupmode="layer"
     id="layer1"
     transform="translate(-131.07742,-111.37834)">
    <g
       id="g950"
       clip-path="url(#clipPath954)"
       transform="matrix(0.35277777,0,0,-0.35277777,64.009071,133.49881)">
      <g
         id="g976">
        <g
           id="g978" />
        <g
           id="g1050">
          <g
             clip-path="url(#clipPath982)"
             id="g1048">
            <g
               id="g1010">
              <g
                 id="g1000" />
              <g
                 id="g1008">
                <g
                   clip-path="url(#clipPath986)"
                   id="g1006">
                  <g
                     transform="translate(217.8775,19.2407)"
                     id="g1004">
                    <path
                       d="m 0,0 c -6.91,-2.416 -15.609,4.492 -19.43,15.428 -3.82,10.935 -1.313,21.756 5.599,24.172 6.91,2.412 15.61,-4.495 19.429,-15.429 C 9.419,13.236 6.91,2.413 0,0 M -15.148,40.248 C -22.812,37.561 -25.781,26.093 -21.769,14.61 -17.76,3.13 -8.292,-4.009 -0.626,-1.327 7.352,1.464 10.333,12.935 6.323,24.417 2.312,35.896 -7.32,42.992 -15.148,40.248"
                       style="fill:#33bccf;fill-opacity:1;fill-rule:nonzero;stroke:none"
                       id="path1002" />
                  </g>
                </g>
              </g>
            </g>
            <g
               id="g1022">
              <g
                 id="g1012" />
              <g
                 id="g1020">
                <g
                   clip-path="url(#clipPath990)"
                   id="g1018">
                  <g
                     transform="translate(228.6363,48.0812)"
                     id="g1016">
                    <path
                       d="m 0,0 c 0.471,-7.752 -7.435,-13.946 -17.655,-14.564 -10.221,-0.62 -18.887,4.569 -19.356,12.32 -0.471,7.754 7.434,14.541 17.656,15.158 C -9.135,13.534 -0.468,7.752 0,0 m -37.868,-3.389 c 0.52,-8.601 9.641,-15.046 20.373,-14.395 10.729,0.651 19.007,8.15 18.485,16.749 C 0.47,7.565 -8.653,14.009 -19.383,13.36 -30.114,12.71 -38.39,5.211 -37.868,-3.389"
                       style="fill:#33bccf;fill-opacity:1;fill-rule:nonzero;stroke:none"
                       id="path1014" />
                  </g>
                </g>
              </g>
            </g>
            <g
               transform="translate(230.6825,37.767)"
               id="g1026">
              <path
                 d="m 0,0 c -0.325,5.468 -9.957,8.845 -20.929,7.635 -10.385,-1.146 -18.238,-6.028 -18.032,-10.98 0.203,-4.981 8.476,-8.535 18.978,-7.89 C -8.879,-10.554 0.333,-5.495 0,0 m -39.867,-2.726 c -0.224,5.478 7.973,10.858 18.85,12.108 11.523,1.325 21.681,-2.44 22.049,-8.514 0,-6.56 -9.169,-12.031 -20.846,-12.739 -11.015,-0.668 -19.828,3.638 -20.053,9.145"
                 style="fill:#33bccf;fill-opacity:1;fill-rule:nonzero;stroke:none"
                 id="path1024" />
            </g>
            <g
               id="g1046">
              <g
                 id="g1028" />
              <g
                 id="g1044">
                <g
                   clip-path="url(#clipPath994)"
                   id="g1042">
                  <g
                     id="g1040">
                    <g
                       id="g1030" />
                    <g
                       id="g1038">
                      <g
                         clip-path="url(#clipPath998)"
                         id="g1036">
                        <g
                           transform="translate(212.1859,22.1688)"
                           id="g1034">
                          <path
                             d="M 0,0 C -2.6,-0.158 -5.107,0.094 -7.433,0.679 -2.176,1.406 3.33,5.166 7.19,11.035 c 5.527,2.74 9.78,6.148 11.401,9.459 0.299,-0.982 0.49,-2.004 0.555,-3.057 C 19.687,8.481 11.115,0.674 0,0 m -17.67,27.611 c 5.28,9.796 14.924,14.795 21.539,11.171 2.786,-1.527 4.586,-4.343 5.347,-7.821 -3.319,1.489 -7.162,2.232 -11.214,1.986 -7.772,-0.471 -14.343,-4.455 -17.692,-9.997 0.518,1.559 1.19,3.123 2.02,4.661 M 8.522,13.259 c 2.607,4.833 3.666,9.957 3.294,14.447 0.824,-0.079 1.586,-0.21 2.278,-0.388 1.783,-1.583 3.172,-3.466 4.043,-5.56 -0.928,-3.031 -4.741,-6.579 -10.184,-9.505 0.195,0.33 0.385,0.664 0.569,1.006 M 1.925,9.542 c -9.465,-3.509 -18.354,-3.62 -21.22,-0.505 -0.351,0.608 -0.659,1.235 -0.914,1.884 -0.637,4.28 6.397,10.432 16.383,14.134 4.881,1.811 9.608,2.716 13.438,2.743 C 9.777,23.665 8.696,18.964 6.283,14.487 5.426,12.898 4.454,11.438 3.399,10.117 2.914,9.921 2.425,9.728 1.925,9.542 m -22.472,10.174 c 2.084,6.831 9.477,12.165 18.579,12.717 4.118,0.25 8.005,-0.517 11.298,-2.032 0.07,-0.385 0.126,-0.779 0.173,-1.179 -3.972,0.036 -8.814,-0.841 -13.867,-2.713 -8.507,-3.155 -14.905,-8.117 -16.628,-12.41 -0.09,1.785 0.058,3.678 0.445,5.617 M -11.66,2.204 c -2.522,1.22 -4.674,2.887 -6.288,4.88 4.299,-2.037 11.891,-1.27 19.991,1.734 0.128,0.047 0.254,0.098 0.38,0.146 C -1.783,4.26 -7.06,1.706 -11.66,2.204 m 29.798,22.173 c 0.186,-0.504 0.246,-1.04 0.198,-1.601 -0.839,1.548 -1.929,2.968 -3.226,4.225 1.527,-0.571 2.591,-1.446 3.028,-2.624 m 2.086,-8.14 c -0.11,1.834 -0.542,3.584 -1.241,5.215 0.448,1.339 0.443,2.65 -0.117,3.88 -0.861,1.894 -3.065,3.121 -6.126,3.628 -0.391,0.274 -0.791,0.536 -1.203,0.785 -0.789,4.153 -2.909,7.575 -6.262,9.412 -7.338,4.02 -17.78,-1.055 -23.326,-11.337 -1.193,-2.214 -2.061,-4.488 -2.617,-6.735 -1.03,-2.301 -1.533,-4.808 -1.375,-7.408 0.602,-9.936 10.552,-17.417 22.224,-16.709 11.672,0.706 20.648,9.334 20.043,19.269"
                             style="fill:#ed0e58;fill-opacity:1;fill-rule:nonzero;stroke:none"
                             id="path1032" />
                        </g>
                      </g>
                    </g>
                  </g>
                </g>
              </g>
            </g>
          </g>
        </g>
      </g>
    </g>
  </g>
</svg>
